<svg xmlns="http://www.w3.org/2000/svg" width="64" height="64" fill="none"><rect width="100%" height="100%" fill="#764191"/><path fill="#fff" d="M35.001 6.28c.769-.083 1.66.077 2.4.287 1.676.476 3.036 1.494 3.844 2.948a5.885 5.885 0 0 1 .448 4.835c-.704 1.975-2.211 2.968-4.094 3.88l.021 5.763c1.346.383 2.655.815 3.877 1.475 2.809 1.517 4.73 4.076 5.535 6.986.852 3.052.367 6.295-1.346 9.015a11.437 11.437 0 0 1-7.078 4.985c-3.918.912-7.242-.076-10.61-1.942a268.413 268.413 0 0 0-4.411 4.5c.649 1.426.864 2.923.434 4.438-.421 1.482-1.536 2.752-2.961 3.503-1.598.843-3.418.996-5.17.528-1.737-.463-3.199-1.466-4.048-2.973-.836-1.482-.906-3.22-.364-4.802.616-1.798 1.873-2.906 3.638-3.727 1.901-.693 3.472-.465 5.328.158 1.544-1.515 3-3.106 4.56-4.608-1.715-3.134-2.27-5.804-1.379-9.257-1.942-.845-3.815-1.828-5.758-2.674-1.038 1.007-2.307 1.697-3.798 1.93-1.777.28-3.65-.173-5.112-1.145-1.447-.977-2.4-2.466-2.634-4.117-.24-1.601.213-3.366 1.313-4.63 1.135-1.302 2.896-2.088 4.675-2.262 1.747-.159 3.49.338 4.843 1.38 1.73 1.35 2.231 3.028 2.44 5.03 1.843 1.052 3.952 1.863 5.871 2.802 2.497-2.75 4.32-3.618 7.96-4.663l.004-5.718c-.652-.243-1.303-.539-1.87-.928-1.436-.99-2.379-2.48-2.612-4.13-.215-1.641.283-3.295 1.382-4.593 1.202-1.405 2.809-2.045 4.672-2.275Zm8.024 28.444c-.37-3.934-4.08-6.85-8.304-6.53-4.261.323-7.426 3.816-7.053 7.784.374 3.97 4.143 6.896 8.4 6.523 4.22-.37 7.327-3.844 6.957-7.777ZM55.235 25.17c.18-.008.355-.01.534.014.56.076 1.112.328 1.42.786.328.487.373 1.134.418 1.697.222 2.788.057 5.688.056 8.486 0 2.285.271 5.383-.184 7.583-.143.692-.636 1.022-1.225 1.396-.224.026-.46.055-.686.043a1.906 1.906 0 0 1-1.312-.597c-.323-.356-.314-1.07-.343-1.517-.205-3.206-.031-6.516-.028-9.732.002-1.828-.268-5.327.144-6.958.148-.584.712-.89 1.206-1.2ZM50.071 29.65c.607.104 1.144.317 1.498.808.545.758.56 8.182.287 9.242-.15.58-.688.862-1.198 1.14-.584-.032-1.351-.08-1.741-.552-.58-.701-.533-8.592-.202-9.582.192-.575.826-.818 1.356-1.056Z"/></svg>