<svg aria-hidden="true" style="position: absolute; width: 0; height: 0; overflow: hidden;" version="1.1" xmlns="http://www.w3.org/2000/svg" xmlns:xlink="http://www.w3.org/1999/xlink">
<defs>
<symbol id="icon-caret-right" viewBox="0 0 31 32">
<path  d="M11.52 24.687l10.24-8.96-10.24-8.96v17.92z"></path>
</symbol>
<symbol id="icon-chevron-down" viewBox="0 0 31 32">
<path  d="M20.855 11.255l-5.495 5.495-5.495-5.495-1.81 1.81 7.305 7.305 7.305-7.305-1.81-1.81z"></path>
</symbol>
<symbol id="icon-chevron-up" viewBox="0 0 31 32">
<path  d="M8.055 18.935l1.81 1.81 5.495-5.495 5.495 5.495 1.81-1.81-7.305-7.305-7.305 7.305z"></path>
</symbol>
<symbol id="icon-down-arrow-alt" viewBox="0 0 31 32">
<path  d="M23.945 16.611l-1.81-1.81-5.495 5.496v-12.27h-2.56v12.269l-5.495-5.495-1.81 1.81 8.585 8.585 8.585-8.585z"></path>
</symbol>
<symbol id="icon-facebook" viewBox="0 0 31 32">
<path  d="M28.16 16.511c0-7.113-5.731-12.879-12.8-12.879s-12.8 5.766-12.8 12.881c0 6.427 4.681 11.756 10.801 12.721v-8.998h-3.251v-3.724h3.251v-2.836c0-3.228 1.91-5.010 4.835-5.010 1.4 0 2.865 0.251 2.865 0.251v3.168h-1.613c-1.591 0-2.086 0.993-2.086 2.011v2.418h3.549l-0.567 3.722h-2.982v8.998c6.118-0.966 10.799-6.295 10.799-12.721z"></path>
</symbol>
<symbol id="icon-Icon" viewBox="0 0 32 32">
<path  d="M22.835 22.364l-0.471 0.471c-0.121 0.121-0.287 0.195-0.471 0.195s-0.351-0.075-0.471-0.195l-5.421-5.42-5.421 5.42c-0.121 0.121-0.287 0.195-0.472 0.195s-0.351-0.075-0.472-0.195l-0.471-0.471c-0.121-0.121-0.195-0.287-0.195-0.471s0.075-0.351 0.195-0.471l5.42-5.421-5.42-5.421c-0.121-0.121-0.195-0.287-0.195-0.472s0.075-0.351 0.195-0.472l0.471-0.471c0.26-0.26 0.683-0.26 0.943 0l5.421 5.42 5.421-5.42c0.26-0.26 0.683-0.26 0.943 0l0.471 0.471c0.26 0.26 0.26 0.683 0 0.943l-5.42 5.421 5.42 5.421c0.26 0.26 0.26 0.683 0 0.943z"></path>
</symbol>
<symbol id="icon-instagram" viewBox="0 0 31 32">
<path  d="M20.48 4.911h-10.24c-3.535 0-6.4 2.865-6.4 6.4v0 10.24c0 3.535 2.865 6.4 6.4 6.4v0h10.24c3.535 0 6.4-2.865 6.4-6.4v0-10.24c0-3.535-2.865-6.4-6.4-6.4v0zM24.64 21.551c-0.007 2.295-1.865 4.153-4.159 4.16h-10.241c-2.295-0.007-4.153-1.865-4.16-4.159v-10.241c0.007-2.295 1.865-4.153 4.159-4.16h10.241c2.295 0.007 4.153 1.865 4.16 4.159v10.241zM21.44 11.631c0.707 0 1.28-0.573 1.28-1.28s-0.573-1.28-1.28-1.28v0c-0.707 0-1.28 0.573-1.28 1.28s0.573 1.28 1.28 1.28v0zM15.36 10.671c-3.181 0-5.76 2.579-5.76 5.76s2.579 5.76 5.76 5.76c3.181 0 5.76-2.579 5.76-5.76v0c0-0.004 0-0.008 0-0.013 0-3.174-2.573-5.747-5.747-5.747-0.005 0-0.009 0-0.014 0h0.001zM11.84 16.431c0 1.944 1.576 3.52 3.52 3.52s3.52-1.576 3.52-3.52v0c0-1.944-1.576-3.52-3.52-3.52s-3.52 1.576-3.52 3.52v0z"></path>
</symbol>
<symbol id="icon-left-arrow-alt" viewBox="0 0 31 32">
<path  d="M16.265 23.366l-5.495-5.495h12.27v-2.56h-12.27l5.495-5.495-1.81-1.81-8.585 8.585 8.585 8.585 1.81-1.81z"></path>
</symbol>
<symbol id="icon-logo" viewBox="0 0 113 32">
<path  d="M16.645 0.014c0.445-0.051 0.96 0.049 1.389 0.179 0.971 0.296 1.759 0.928 2.226 1.832 0.486 0.926 0.58 2.009 0.259 3.005-0.407 1.228-1.28 1.845-2.37 2.413l0.012 3.581c0.78 0.237 1.538 0.506 2.246 0.916 1.626 0.943 2.739 2.532 3.205 4.342 0.151 0.558 0.238 1.199 0.238 1.86 0 1.38-0.378 2.672-1.036 3.778l0.019-0.034c-0.91 1.532-2.361 2.665-4.098 3.098-2.27 0.567-4.195-0.048-6.145-1.208-0.861 0.922-1.713 1.854-2.553 2.797 0.375 0.887 0.5 1.817 0.25 2.759-0.244 0.922-0.889 1.71-1.714 2.176-0.925 0.524-1.979 0.62-2.993 0.328-1.007-0.287-1.853-0.911-2.345-1.848-0.484-0.922-0.526-2-0.212-2.984 0.358-1.118 1.085-1.806 2.108-2.317 1.101-0.431 2.010-0.289 3.085 0.099 0.894-0.942 1.737-1.93 2.64-2.864-0.994-1.948-1.315-3.608-0.799-5.753-1.124-0.526-2.209-1.137-3.334-1.663-0.601 0.626-1.335 1.055-2.2 1.2-1.029 0.174-2.114-0.107-2.96-0.712-0.818-0.598-1.382-1.501-1.524-2.539l-0.002-0.020c-0.138-0.996 0.124-2.092 0.761-2.877 0.657-0.811 1.677-1.299 2.707-1.407 0.111-0.011 0.24-0.018 0.37-0.018 0.928 0 1.779 0.331 2.442 0.881l-0.006-0.005c1.002 0.839 1.292 1.883 1.412 3.126 1.067 0.654 2.289 1.158 3.4 1.742 1.445-1.709 2.503-2.248 4.609-2.898l0.003-3.554c-0.413-0.159-0.771-0.353-1.098-0.587l0.015 0.010c-0.812-0.605-1.37-1.51-1.511-2.548l-0.002-0.020c-0.018-0.14-0.028-0.302-0.028-0.467 0-0.906 0.312-1.738 0.835-2.396l-0.006 0.008c0.696-0.873 1.626-1.271 2.705-1.413zM21.292 17.694c-0.207-2.292-2.119-4.074-4.447-4.074-2.465 0-4.464 1.999-4.464 4.464 0 0.137 0.006 0.273 0.018 0.407l-0.001-0.017c0.207 2.292 2.119 4.074 4.447 4.074 2.465 0 4.464-1.999 4.464-4.464 0-0.137-0.006-0.273-0.018-0.407l0.001 0.017zM104.613 12.143c0.771 0.001 1.535 0.011 2.297 0.031l-0.117-0.002-0.003 3.841c0.559-0.434 1.169-0.759 1.879-0.865 0.162-0.026 0.349-0.041 0.539-0.041 0.818 0 1.573 0.273 2.177 0.734l-0.009-0.006c0.932 0.706 1.421 1.892 1.563 3.026 0.18 1.439-0.158 2.823-1.046 3.969-0.589 0.569-1.297 0.966-2.112 1.1-1.196 0.197-2.143-0.223-3.077-0.918l-0.004 0.839-2.085-0.004-0.001-11.705zM109.418 17.29c-0.35-0.136-0.7-0.154-1.069-0.114-0.647 0.215-1.099 0.523-1.414 1.147-0.351 0.692-0.375 1.547-0.102 2.268 0.21 0.553 0.601 1.032 1.147 1.278 0.396 0.18 0.769 0.184 1.196 0.159 0.676-0.255 1.132-0.583 1.438-1.261 0.151-0.338 0.239-0.733 0.239-1.149 0-0.406-0.084-0.792-0.236-1.143l0.007 0.019c-0.233-0.547-0.647-0.989-1.207-1.205zM39.479 12.125c0.627 0.014 1.257 0.007 1.886 0.001l0.805-0.006c1.279 3.941 2.915 7.776 4.162 11.729l-2.356 0.001c-0.275-0.843-0.544-1.798-0.964-2.578-0.226-0.096-0.484-0.088-0.732-0.079l-0.164 0.005c-1.137 0.011-2.274 0.007-3.412-0.013-0.356 0.871-0.643 1.767-0.926 2.665l-2.4-0.003c1.253-3.934 2.748-7.818 4.101-11.722zM42.391 19.251c-0.188-0.53-1.282-3.984-1.564-4.217-0.496 1.409-0.959 2.84-1.502 4.233h1.727l1.34-0.016z"></path>
<path  d="M91.861 12.143l2.246 0.011c-0.032 2.712 0 5.435 0 8.158 0 1.123 0.106 2.342-0.021 3.454l-0.117 0.085h-2.119v-5.022c-1.685-0.042-3.391 0-5.075 0v5.022l-2.267-0.011v-11.697h2.267v4.789h5.086v-4.789zM95.464 15.385c0.752 0.021 1.505 0.011 2.246 0.011-0.011 1.197-0.191 4.503 0.095 5.488 0.117 0.392 0.339 0.752 0.71 0.943 0.551 0.286 1.123 0.117 1.674-0.074 0.244-0.275 0.456-0.53 0.572-0.879 0.392-1.155 0.18-4.111 0.18-5.488 0.71 0.021 1.43 0.011 2.14 0-0.021 0.826 0 1.653-0.011 2.469l0.011 5.986c-0.699 0.011-1.399 0.011-2.098-0.011l-0.064-0.074c0.011-0.18 0.011-0.328-0.021-0.509-0.657 0.286-1.24 0.72-1.981 0.731-0.869 0.021-1.812-0.244-2.426-0.869-0.477-0.466-0.763-1.102-0.911-1.748-0.318-1.388-0.127-4.45-0.117-5.976zM65.172 15.152c1.112-0.095 2.278-0.011 3.189 0.742 0.625 0.53 0.837 1.155 0.901 1.95l-2.024-0.011c-0.117-0.212-0.222-0.466-0.413-0.636-0.286-0.265-0.71-0.403-1.102-0.381-0.307 0.011-0.699 0.138-0.89 0.392-0.117 0.159-0.18 0.328-0.138 0.519 0.233 1.038 2.871 0.911 3.708 1.462 0.53 0.35 0.943 0.975 1.060 1.6 0.117 0.636-0.032 1.293-0.424 1.822-0.636 0.879-1.632 1.197-2.659 1.356-0.964 0.064-2.066-0.191-2.829-0.773-0.72-0.551-0.975-1.218-1.081-2.077 0.689 0 1.367-0.011 2.045-0.021 0.042 0.127 0.085 0.254 0.148 0.371 0.297 0.54 0.89 0.668 1.441 0.826 0.36-0.085 0.848-0.18 1.102-0.466 0.159-0.18 0.212-0.487 0.148-0.71-0.254-0.869-2.776-0.964-3.645-1.505-0.519-0.318-0.901-0.784-1.038-1.388-0.127-0.54-0.085-1.155 0.222-1.632 0.551-0.858 1.314-1.218 2.278-1.441zM78.766 15.141c0.636-0.053 1.261-0.042 1.875 0.127 0.72 0.191 1.483 0.593 1.844 1.271 0.17 0.318 0.307 0.901 0.191 1.261-0.583 0.127-1.293 0.042-1.886 0.042-0.085-0.297-0.159-0.53-0.403-0.731-0.251-0.21-0.578-0.337-0.934-0.337-0.055 0-0.11 0.003-0.164 0.009l0.007-0.001c-0.307 0.032-0.699 0.18-0.869 0.456-0.106 0.17-0.148 0.339-0.085 0.519 0.371 1.102 2.606 0.837 3.475 1.335 0.551 0.318 1.007 0.869 1.165 1.494 0.17 0.668 0.053 1.409-0.328 1.981-0.572 0.858-1.483 1.176-2.448 1.367-0.943 0.117-2.045-0.085-2.829-0.636-0.816-0.551-1.060-1.261-1.24-2.172l2.024-0.021c0.127 0.318 0.233 0.551 0.498 0.773 0.35 0.286 0.763 0.413 1.218 0.35 0.35-0.042 0.689-0.201 0.901-0.498 0.138-0.191 0.201-0.424 0.138-0.657-0.254-0.901-2.49-0.848-3.38-1.324-0.593-0.318-1.070-0.858-1.261-1.515-0.159-0.562-0.095-1.144 0.201-1.642 0.487-0.837 1.388-1.24 2.289-1.452zM53.835 13.065c0.667 0.021 1.346 0 2.024 0.011-0.011 0.752 0 1.515 0.032 2.278h1.992v1.738h-1.907c0.011 1.091-0.244 3.92 0.254 4.757 0.392 0.318 1.176 0.201 1.653 0.191v1.441c0 0.148 0 0.223-0.074 0.36-0.265 0.127-0.54 0.148-0.837 0.148-0.773 0.011-1.833-0.127-2.395-0.71-1.112-1.155-0.752-4.567-0.752-6.188h-1.282v-1.748l1.282 0.011 0.011-2.289zM71.179 13.054l1.981 0.011c-0.011 0.763 0.021 1.526 0.032 2.278h2.034l-0.011 1.748h-1.907c0.021 1.038-0.233 3.952 0.244 4.736 0.509 0.307 1.144 0.223 1.716 0.223-0.011 0.498 0 1.007 0 1.505l-0.021 0.191c-0.201 0.212-0.498 0.201-0.773 0.212-0.816 0.011-1.939-0.117-2.532-0.731-1.102-1.155-0.752-4.524-0.742-6.135h-1.367c-0.011-0.583-0.011-1.165-0.011-1.738l1.356 0.011v-2.31zM28.353 11.751c0.106-0.011 0.212-0.011 0.318 0.011 0.318 0.042 0.636 0.201 0.816 0.487 0.191 0.297 0.223 0.699 0.244 1.049 0.127 1.738 0.032 3.539 0.032 5.276 0 1.42 0.159 3.348-0.106 4.715-0.085 0.434-0.371 0.636-0.71 0.869-0.127 0.011-0.265 0.032-0.392 0.021-0.307-0.007-0.579-0.149-0.762-0.369l-0.001-0.002c-0.191-0.212-0.18-0.657-0.201-0.943-0.117-1.992-0.011-4.047-0.011-6.039 0-1.144-0.159-3.316 0.085-4.334 0.085-0.36 0.413-0.551 0.689-0.742zM51.377 15.321l0.286-0.011c0.328 0.381 0.17 1.579 0.159 2.077-0.72-0.011-1.399-0.032-1.95 0.487-1.060 0.964-0.699 4.535-0.71 5.965-0.562 0-1.663 0.201-2.087-0.159l-0.021-0.35c0.011-2.649-0.064-5.308-0.042-7.957 0.678 0.021 1.367 0 2.045 0l-0.021 1.176c0.127-0.18 0.254-0.381 0.392-0.54 0.519-0.583 1.218-0.636 1.95-0.689zM59.122 15.353h2.14l0.011 8.497-2.172-0.011 0.021-8.487zM25.365 14.537c0.35 0.064 0.668 0.191 0.869 0.498 0.318 0.477 0.328 5.086 0.17 5.743-0.085 0.36-0.403 0.54-0.699 0.71-0.339-0.021-0.784-0.053-1.007-0.339-0.339-0.434-0.307-5.34-0.117-5.955 0.117-0.36 0.477-0.509 0.784-0.657zM60.054 11.857c0.636-0.074 1.218 0.371 1.314 0.996 0.085 0.636-0.339 1.229-0.964 1.346-0.424 0.074-0.858-0.085-1.134-0.424-0.161-0.2-0.259-0.457-0.259-0.736 0-0.162 0.033-0.317 0.093-0.458l-0.003 0.008c0.159-0.403 0.53-0.678 0.954-0.731z"></path>
</symbol>
<symbol id="icon-logo-about" viewBox="0 0 32 32">
<path  d="M17.284 3.286c0.38-0.041 0.82 0.039 1.185 0.142 0.827 0.235 1.5 0.738 1.899 1.456 0.239 0.413 0.38 0.908 0.38 1.437 0 0.34-0.058 0.667-0.166 0.97l0.006-0.020c-0.347 0.976-1.092 1.466-2.022 1.917l0.011 2.846c0.665 0.189 1.311 0.402 1.914 0.728 1.387 0.749 2.336 2.013 2.734 3.45 0.42 1.507 0.181 3.109-0.665 4.452-0.776 1.218-2.014 2.117-3.495 2.461-1.935 0.45-3.576-0.038-5.24-0.959-0.735 0.732-1.462 1.474-2.178 2.222 0.32 0.704 0.427 1.444 0.214 2.192-0.208 0.732-0.759 1.359-1.463 1.73-0.789 0.416-1.687 0.492-2.552 0.261-0.858-0.229-1.58-0.724-1.999-1.469-0.413-0.732-0.448-1.589-0.18-2.37 0.304-0.889 0.925-1.435 1.797-1.841 0.939-0.343 1.715-0.23 2.631 0.077 0.762-0.748 1.481-1.534 2.252-2.275-0.847-1.548-1.122-2.867-0.681-4.572-0.959-0.417-1.884-0.903-2.843-1.321-0.513 0.498-1.139 0.839-1.875 0.954-0.877 0.137-1.803-0.086-2.524-0.566-0.715-0.482-1.185-1.218-1.301-2.033-0.119-0.79 0.104-1.662 0.648-2.286 0.561-0.644 1.43-1.031 2.308-1.117 0.863-0.078 1.724 0.167 2.393 0.681 0.855 0.667 1.101 1.496 1.205 2.484 0.909 0.52 1.951 0.921 2.899 1.384 1.233-1.358 2.134-1.787 3.931-2.303l0.002-2.823c-0.322-0.12-0.643-0.266-0.923-0.458-0.709-0.489-1.175-1.225-1.29-2.040-0.107-0.811 0.139-1.628 0.682-2.268 0.594-0.694 1.387-1.010 2.307-1.123zM21.247 17.333c-0.183-1.943-2.015-3.383-4.101-3.225-2.104 0.16-3.667 1.884-3.483 3.844s2.046 3.405 4.148 3.221c2.084-0.183 3.618-1.898 3.435-3.84zM27.276 12.615c0.089-0.004 0.175-0.006 0.264 0.006 0.277 0.038 0.549 0.162 0.702 0.388 0.162 0.24 0.184 0.56 0.206 0.838 0.109 1.377 0.028 2.809 0.028 4.19 0 1.128 0.134 2.658-0.091 3.745-0.071 0.341-0.314 0.505-0.605 0.689-0.111 0.013-0.227 0.027-0.339 0.021-0.25-0.013-0.486-0.117-0.648-0.294-0.16-0.176-0.155-0.529-0.169-0.749-0.102-1.584-0.016-3.218-0.014-4.806 0.001-0.903-0.132-2.63 0.071-3.436 0.073-0.288 0.352-0.439 0.595-0.593zM24.727 14.827c0.299 0.051 0.565 0.156 0.739 0.399 0.269 0.375 0.277 4.041 0.142 4.564-0.074 0.286-0.34 0.425-0.592 0.563-0.288-0.016-0.668-0.040-0.86-0.273-0.286-0.346-0.263-4.243-0.1-4.732 0.095-0.284 0.408-0.404 0.67-0.521z"></path>
</symbol>
<symbol id="icon-mob-menu" viewBox="0 0 32 32">
<path  d="M10.667 12h10.667v1.333h-10.667v-1.333zM13.333 15.333h8v1.333h-8v-1.333zM16.667 18.667h4.667v1.333h-4.667v-1.333z"></path>
</symbol>
<symbol id="icon-right-arrow" viewBox="0 0 31 32">
<path  d="M7.086 28.654c0.172 0.091 0.376 0.145 0.593 0.145 0.273 0 0.525-0.085 0.733-0.23l-0.004 0.003 16.64-11.52c0.335-0.234 0.551-0.618 0.551-1.052s-0.216-0.818-0.547-1.049l-0.004-0.003-16.64-11.52c-0.204-0.144-0.457-0.23-0.731-0.23-0.705 0-1.277 0.572-1.277 1.277 0 0.002 0 0.003 0 0.005v-0 23.040c0 0 0 0 0 0 0 0.49 0.275 0.915 0.679 1.131l0.007 0.003zM8.96 6.924l13.111 9.076-13.111 9.076v-18.153z"></path>
</symbol>
<symbol id="icon-right-arrow-alt" viewBox="0 0 31 32">
<path  d="M14.455 23.366l1.81 1.81 8.585-8.585-8.585-8.585-1.81 1.81 5.495 5.495h-12.27v2.56h12.27l-5.495 5.495z"></path>
</symbol>
<symbol id="icon-youtube" viewBox="0 0 31 32">
<path  d="M27.639 9.981c-0.304-1.103-1.154-1.954-2.233-2.255l-0.023-0.005c-2.004-0.55-10.022-0.559-10.022-0.559s-8.019-0.009-10.025 0.517c-1.1 0.32-1.947 1.173-2.255 2.253l-0.006 0.023c-0.529 2.004-0.534 6.162-0.534 6.162s-0.005 4.178 0.52 6.162c0.294 1.097 1.158 1.964 2.257 2.259 2.025 0.55 10.022 0.559 10.022 0.559s8.019 0.009 10.024-0.516c1.102-0.306 1.953-1.155 2.256-2.234l0.005-0.023c0.53-2.003 0.534-6.159 0.534-6.159s0.026-4.179-0.521-6.184zM12.795 19.968l0.006-7.68 6.665 3.846-6.671 3.834z"></path>
</symbol>
</defs>
</svg>
