<svg width="0" height="0" class="hidden">
  <symbol xmlns="http://www.w3.org/2000/svg" fill="none" viewBox="0 0 24 25" id="caret-right">
    <path fill="#fff" d="m9 19.287 8-7-8-7v14Z"></path>
  </symbol>
  <symbol xmlns="http://www.w3.org/2000/svg" fill="none" viewBox="0 0 24 25" id="down-arrow-alt">
    <path fill="#fff" d="m18.707 12.977-1.414-1.414L13 15.857V6.271h-2v9.585l-4.293-4.293-1.414 1.414L12 19.684l6.707-6.707Z"></path>
  </symbol>
  <symbol xmlns="http://www.w3.org/2000/svg" fill="none" viewBox="0 0 24 25" id="facebook">
    <path fill="#fff" d="M22 12.899c0-5.557-4.477-10.062-10-10.062S2 7.342 2 12.9c0 5.021 3.657 9.184 8.438 9.938v-7.03h-2.54v-2.909h2.54v-2.216c0-2.522 1.492-3.914 3.777-3.914 1.094 0 2.238.196 2.238.196V9.44h-1.26c-1.243 0-1.63.776-1.63 1.571V12.9h2.773l-.443 2.908h-2.33v7.03C18.343 22.083 22 17.92 22 12.9Z"></path>
  </symbol>
  <symbol xmlns="http://www.w3.org/2000/svg" fill="none" viewBox="0 0 24 25" id="instagram">
    <path fill="#fff" fill-rule="evenodd" d="M16 3.837H8a5 5 0 0 0-5 5v8a5 5 0 0 0 5 5h8a5 5 0 0 0 5-5v-8a5 5 0 0 0-5-5Zm3.25 13a3.26 3.26 0 0 1-3.25 3.25H8a3.26 3.26 0 0 1-3.25-3.25v-8A3.26 3.26 0 0 1 8 5.587h8a3.26 3.26 0 0 1 3.25 3.25v8Zm-2.5-7.75a1 1 0 1 0 0-2 1 1 0 0 0 0 2ZM12 8.337a4.5 4.5 0 1 0 4.5 4.5 4.49 4.49 0 0 0-4.5-4.5Zm-2.75 4.5a2.75 2.75 0 1 0 5.5 0 2.75 2.75 0 0 0-5.5 0Z" clip-rule="evenodd"></path>
  </symbol>
  <symbol xmlns="http://www.w3.org/2000/svg" fill="none" viewBox="0 0 106.636 30.201" id="logo">
    <path fill="#FFF" fill-rule="evenodd" d="M15.71.013c.42-.048.906.046 1.311.169.916.279 1.66.876 2.101 1.729.459.874.547 1.896.244 2.836-.384 1.159-1.208 1.741-2.237 2.277l.011 3.38c.736.224 1.452.478 2.12.865 1.535.89 2.585 2.39 3.025 4.098a6.98 6.98 0 0 1-.736 5.289c-.859 1.446-2.228 2.515-3.868 2.924-2.142.535-3.959-.045-5.8-1.14-.813.87-1.617 1.75-2.41 2.64.354.837.472 1.715.236 2.604-.23.87-.839 1.614-1.618 2.054-.873.495-1.868.585-2.825.31-.95-.271-1.749-.86-2.213-1.744-.457-.87-.496-1.888-.2-2.816.338-1.055 1.024-1.705 1.99-2.187 1.039-.407 1.897-.273 2.912.093.844-.889 1.639-1.822 2.492-2.703-.938-1.839-1.241-3.405-.754-5.43-1.061-.496-2.085-1.073-3.147-1.57-.567.591-1.26.996-2.076 1.133-.971.164-1.995-.101-2.794-.672a3.557 3.557 0 0 1-1.44-2.415c-.13-.94.117-1.974.718-2.715.62-.765 1.583-1.226 2.555-1.328a3.608 3.608 0 0 1 2.648.81c.946.792 1.219 1.777 1.333 2.95 1.007.617 2.16 1.093 3.209 1.644 1.364-1.613 2.362-2.122 4.35-2.735l.003-3.354a4.62 4.62 0 0 1-1.022-.544A3.597 3.597 0 0 1 12.4 4.042a3.637 3.637 0 0 1 .756-2.695c.657-.824 1.535-1.2 2.553-1.334Zm4.386 16.686a4.213 4.213 0 1 0-8.394.736 4.213 4.213 0 0 0 8.394-.736ZM98.735 11.46a85 85 0 0 1 2.057.027l-.003 3.625c.528-.41 1.103-.716 1.773-.816a3.394 3.394 0 0 1 2.555.648c.88.666 1.341 1.786 1.475 2.856.17 1.358-.149 2.664-.987 3.746-.556.537-1.224.912-1.993 1.038-1.129.186-2.023-.21-2.904-.866l-.004.792-1.968-.004-.001-11.047Zm4.535 4.858c-.33-.128-.661-.145-1.009-.108-.611.203-1.037.494-1.335 1.083-.331.653-.354 1.46-.096 2.141.198.522.567.974 1.083 1.206.374.17.726.174 1.129.15.638-.241 1.068-.55 1.357-1.19a2.718 2.718 0 0 0 .01-2.145c-.22-.516-.611-.933-1.139-1.137ZM37.261 11.443c.592.013 1.186.007 1.78.001l.76-.006c1.207 3.72 2.751 7.339 3.928 11.07l-2.224.001c-.26-.796-.513-1.697-.91-2.433-.213-.091-.457-.083-.691-.075l-.155.005c-1.073.01-2.146.007-3.22-.012-.336.822-.607 1.668-.874 2.515l-2.265-.003c1.183-3.713 2.594-7.379 3.871-11.063Zm2.748 6.726c-.177-.5-1.21-3.76-1.476-3.98-.468 1.33-.905 2.68-1.418 3.995h1.63l1.265-.015Z" clip-rule="evenodd"></path>
    <path fill="#FFF" d="m86.7 11.46 2.12.01c-.03 2.56 0 5.13 0 7.7 0 1.06.1 2.21-.02 3.26l-.11.08h-2v-4.74c-1.59-.04-3.2 0-4.79 0v4.74l-2.14-.01V11.46h2.14v4.52h4.8v-4.52ZM90.1 14.52c.71.02 1.42.01 2.12.01-.01 1.13-.18 4.25.09 5.18.11.37.32.71.67.89.52.27 1.06.11 1.58-.07.23-.26.43-.5.54-.83.37-1.09.17-3.88.17-5.18.67.02 1.35.01 2.02 0-.02.78 0 1.56-.01 2.33l.01 5.65c-.66.01-1.32.01-1.98-.01l-.06-.07c.01-.17.01-.31-.02-.48-.62.27-1.17.68-1.87.69-.82.02-1.71-.23-2.29-.82-.45-.44-.72-1.04-.86-1.65-.3-1.31-.12-4.2-.11-5.64ZM61.51 14.3c1.05-.09 2.15-.01 3.01.7.59.5.79 1.09.85 1.84l-1.91-.01c-.11-.2-.21-.44-.39-.6-.27-.25-.67-.38-1.04-.36-.29.01-.66.13-.84.37-.11.15-.17.31-.13.49.22.98 2.71.86 3.5 1.38.5.33.89.92 1 1.51.11.6-.03 1.22-.4 1.72-.6.83-1.54 1.13-2.51 1.28-.91.06-1.95-.18-2.67-.73-.68-.52-.92-1.15-1.02-1.96.65 0 1.29-.01 1.93-.02.04.12.08.24.14.35.28.51.84.63 1.36.78.34-.08.8-.17 1.04-.44.15-.17.2-.46.14-.67-.24-.82-2.62-.91-3.44-1.42-.49-.3-.85-.74-.98-1.31-.12-.51-.08-1.09.21-1.54.52-.81 1.24-1.15 2.15-1.36ZM74.34 14.29c.6-.05 1.19-.04 1.77.12.68.18 1.4.56 1.74 1.2.16.3.29.85.18 1.19-.55.12-1.22.04-1.78.04-.08-.28-.15-.5-.38-.69a1.38 1.38 0 0 0-1.03-.31c-.29.03-.66.17-.82.43-.1.16-.14.32-.08.49.35 1.04 2.46.79 3.28 1.26.52.3.95.82 1.1 1.41.16.63.05 1.33-.31 1.87-.54.81-1.4 1.11-2.31 1.29-.89.11-1.93-.08-2.67-.6-.77-.52-1-1.19-1.17-2.05l1.91-.02c.12.3.22.52.47.73.33.27.72.39 1.15.33.33-.04.65-.19.85-.47.13-.18.19-.4.13-.62-.24-.85-2.35-.8-3.19-1.25-.56-.3-1.01-.81-1.19-1.43-.15-.53-.09-1.08.19-1.55.46-.79 1.31-1.17 2.16-1.37ZM50.81 12.33c.63.02 1.27 0 1.91.01-.01.71 0 1.43.03 2.15h1.88v1.64h-1.8c.01 1.03-.23 3.7.24 4.49.37.3 1.11.19 1.56.18v1.36c0 .14 0 .21-.07.34-.25.12-.51.14-.79.14-.73.01-1.73-.12-2.26-.67-1.05-1.09-.71-4.31-.71-5.84h-1.21v-1.65l1.21.01.01-2.16ZM67.18 12.32l1.87.01c-.01.72.02 1.44.03 2.15H71l-.01 1.65h-1.8c.02.98-.22 3.73.23 4.47.48.29 1.08.21 1.62.21-.01.47 0 .95 0 1.42l-.02.18c-.19.2-.47.19-.73.2-.77.01-1.83-.11-2.39-.69-1.04-1.09-.71-4.27-.7-5.79h-1.29c-.01-.55-.01-1.1-.01-1.64l1.28.01v-2.18ZM26.76 11.09c.1-.01.2-.01.3.01.3.04.6.19.77.46.18.28.21.66.23.99.12 1.64.03 3.34.03 4.98 0 1.34.15 3.16-.1 4.45-.08.41-.35.6-.67.82-.12.01-.25.03-.37.02a.962.962 0 0 1-.72-.35c-.18-.2-.17-.62-.19-.89-.11-1.88-.01-3.82-.01-5.7 0-1.08-.15-3.13.08-4.09.08-.34.39-.52.65-.7ZM48.49 14.46l.27-.01c.31.36.16 1.49.15 1.96-.68-.01-1.32-.03-1.84.46-1 .91-.66 4.28-.67 5.63-.53 0-1.57.19-1.97-.15l-.02-.33c.01-2.5-.06-5.01-.04-7.51.64.02 1.29 0 1.93 0l-.02 1.11c.12-.17.24-.36.37-.51.49-.55 1.15-.6 1.84-.65ZM55.8 14.49h2.02l.01 8.02-2.05-.01.02-8.01ZM23.94 13.72c.33.06.63.18.82.47.3.45.31 4.8.16 5.42-.08.34-.38.51-.66.67-.32-.02-.74-.05-.95-.32-.32-.41-.29-5.04-.11-5.62.11-.34.45-.48.74-.62ZM56.68 11.19c.6-.07 1.15.35 1.24.94.08.6-.32 1.16-.91 1.27-.4.07-.81-.08-1.07-.4a1.11 1.11 0 0 1-.16-1.12c.15-.38.5-.64.9-.69Z"></path>
  </symbol>
  <symbol xmlns="http://www.w3.org/2000/svg" fill="none" viewBox="0 0 80 80" id="logo-about">
    <path fill="#FFF" fill-rule="evenodd" d="M18.604 7.83c.288-.03.622.03.9.108.628.178 1.138.56 1.441 1.105.315.56.375 1.212.168 1.813-.264.741-.83 1.113-1.535 1.456l.008 2.16c.504.144.995.306 1.454.554a4.246 4.246 0 0 1 2.075 2.62 4.199 4.199 0 0 1-.505 3.38 4.29 4.29 0 0 1-2.654 1.87c-1.469.342-2.715-.03-3.979-.729-.558.557-1.11 1.12-1.654 1.688.244.535.324 1.096.163 1.664-.158.556-.576 1.032-1.11 1.314-.6.315-1.282.373-1.939.198-.652-.174-1.2-.55-1.518-1.115-.314-.556-.34-1.207-.137-1.8.231-.675.703-1.09 1.365-1.399.713-.26 1.302-.174 1.998.06.579-.569 1.125-1.165 1.71-1.728-.644-1.175-.852-2.177-.518-3.472-.728-.317-1.43-.685-2.159-1.003-.389.378-.865.637-1.424.724a2.75 2.75 0 0 1-1.917-.43 2.25 2.25 0 0 1-.988-1.543c-.09-.6.08-1.262.493-1.736.425-.489 1.086-.783 1.753-.849a2.603 2.603 0 0 1 1.816.518c.65.506.837 1.136.915 1.886.69.395 1.482.699 2.201 1.05.937-1.03 1.62-1.356 2.986-1.748v-2.144a3.276 3.276 0 0 1-.7-.347 2.275 2.275 0 0 1-.98-1.55 2.212 2.212 0 0 1 .519-1.722c.45-.527 1.053-.767 1.752-.853Zm3.008 10.667c-.138-1.476-1.53-2.57-3.113-2.45-1.598.122-2.785 1.432-2.645 2.92.14 1.489 1.553 2.586 3.15 2.446 1.582-.139 2.747-1.441 2.608-2.916Z" clip-rule="evenodd"></path>
    <path fill="#FFF" d="M69.04 31.46c.22-.01.44-.01.67.02.7.09 1.39.41 1.77.98.41.61.47 1.42.52 2.12.28 3.48.07 7.11.07 10.61 0 2.85.34 6.73-.23 9.48-.18.86-.79 1.27-1.53 1.74-.28.03-.57.07-.85.05-.64-.03-1.24-.29-1.65-.74-.4-.45-.39-1.34-.42-1.9-.26-4.01-.04-8.14-.04-12.16 0-2.29-.33-6.66.18-8.7.19-.73.89-1.11 1.51-1.5ZM62.58 37.06c.76.13 1.43.39 1.88 1.01.68.95.7 10.23.35 11.55-.18.72-.85 1.08-1.49 1.43-.73-.04-1.69-.11-2.18-.7-.72-.87-.66-10.74-.25-11.97.24-.72 1.03-1.02 1.69-1.32Z"></path>
  </symbol>
  <symbol xmlns="http://www.w3.org/2000/svg" fill="none" viewBox="0 0 24 25" id="right-arrow">
    <path fill="#fff" d="M5.536 22.386a1.003 1.003 0 0 0 1.033-.064l13-9a1 1 0 0 0 0-1.644l-13-9A.998.998 0 0 0 5 3.5v18a1 1 0 0 0 .536.886ZM7 5.409 17.243 12.5 7 19.591V5.409Z"></path>
  </symbol>
  <symbol xmlns="http://www.w3.org/2000/svg" fill="none" viewBox="0 0 24 25" id="youtube">
    <path fill="#fff" d="M21.593 7.798a2.506 2.506 0 0 0-1.762-1.766c-1.566-.43-7.83-.437-7.83-.437s-6.265-.007-7.832.404a2.56 2.56 0 0 0-1.766 1.778c-.413 1.566-.417 4.814-.417 4.814s-.004 3.264.406 4.814c.23.857.905 1.534 1.763 1.765 1.582.43 7.83.437 7.83.437s6.265.007 7.831-.403a2.515 2.515 0 0 0 1.767-1.763c.414-1.565.417-4.812.417-4.812s.02-3.265-.407-4.831ZM9.996 15.6l.005-6 5.207 3.005L9.996 15.6Z"></path>
  </symbol>
</svg>