<svg xmlns="http://www.w3.org/2000/svg" aria-hidden="true" style="position:absolute;width:0;height:0;overflow:hidden">
    <defs>
        <symbol id="icon-burger-btn" viewBox="0 0 16 12">
            <path d="M0 4h32v4H0V4zm8 10h24v4H8v-4zm10 10h14v4H18v-4z"/>
        </symbol>
        <symbol id="icon-caret-right" viewBox="0 0 32 32">
            <path d="m12.16 25.023 10.24-8.96-10.24-8.96v17.92z"/>
        </symbol>
        <symbol id="icon-company-logo" viewBox="0 0 32 32">
            <path d="M5.887 12.004a.924.924 0 0 1 .353.045.932.932 0 0 1 .565.465c.123.235.147.51.066.763-.103.312-.325.468-.602.612l.003.909c.198.06.39.129.57.233.413.239.695.643.814 1.102.125.481.054.993-.198 1.422a1.688 1.688 0 0 1-1.04.786c-.576.144-1.065-.012-1.56-.306-.219.234-.435.47-.648.71.095.225.127.461.064.7a.92.92 0 0 1-.435.553.975.975 0 0 1-.76.083.95.95 0 0 1-.595-.469.986.986 0 0 1-.054-.757c.091-.284.275-.458.535-.588.279-.109.51-.073.783.025.227-.239.441-.49.67-.727-.252-.494-.334-.916-.203-1.46-.285-.133-.561-.288-.846-.422a.998.998 0 0 1-.558.305 1.016 1.016 0 0 1-.751-.181.954.954 0 0 1-.387-.65.969.969 0 0 1 .193-.73c.167-.206.426-.33.687-.357a.968.968 0 0 1 .712.218c.254.213.328.478.359.794.271.166.581.294.863.442.367-.434.635-.571 1.17-.736v-.902a1.25 1.25 0 0 1-.275-.146.966.966 0 0 1-.181-1.377c.177-.222.413-.322.687-.359zm1.179 4.487a1.132 1.132 0 1 0-2.258.198 1.132 1.132 0 1 0 2.257-.198zM28.213 15.081c.184 0 .369.003.553.007l-.001.975c.142-.111.297-.193.477-.22a.91.91 0 0 1 .687.175c.237.179.361.48.397.768a1.34 1.34 0 0 1-.265 1.007 1.002 1.002 0 0 1-.536.279c-.304.05-.544-.056-.781-.233l-.001.213-.529-.001V15.08zm.948 1.278c-.164.055-.279.133-.359.291a.73.73 0 0 0-.026.576c.053.14.152.262.291.324a.595.595 0 0 0 .304.04c.172-.065.287-.148.365-.32a.732.732 0 0 0 .003-.577.552.552 0 0 0-.307-.306.569.569 0 0 0-.271-.029zM12.365 15.076c.325 1 .74 1.973 1.056 2.977l-.598.001c-.07-.214-.138-.456-.245-.654-.07-.03-.153-.02-.227-.019a31.25 31.25 0 0 1-.866-.003 8.061 8.061 0 0 0-.235.676l-.609-.001c.318-.999.697-1.984 1.041-2.975.227.005.456 0 .683-.001zm-.341.739c-.126.358-.243.721-.381 1.075h.438l.34-.004c-.048-.135-.326-1.011-.397-1.071zM24.977 15.082l.572.003c-.008.69-.002 1.38-.002 2.07 0 .285.029.596-.003.877l-.031.021h-.536l-.001-1.273c-.429-.012-.86-.001-1.289-.001v1.275l-.576-.001.002-2.97.573.001v1.214h1.291l-.001-1.216zM25.893 15.905c.19.005.38.003.57.005-.002.304-.05 1.142.023 1.393.029.099.087.19.18.238.141.072.284.03.424-.019a.644.644 0 0 0 .146-.224c.1-.293.047-1.044.045-1.392.181.005.362.001.543 0-.004.208-.001.418-.001.626l.003 1.52a11.84 11.84 0 0 1-.533-.004l-.016-.019a.492.492 0 0 0-.005-.127c-.167.072-.315.182-.504.185-.22.004-.458-.064-.616-.222a.913.913 0 0 1-.23-.444c-.081-.351-.033-1.129-.029-1.517zM18.204 15.846c.284-.022.579-.002.809.189.161.134.213.294.23.494l-.513-.001c-.029-.055-.059-.118-.105-.161a.391.391 0 0 0-.281-.098c-.078.004-.177.035-.225.101-.029.04-.046.081-.034.131.058.263.727.23.94.37a.653.653 0 0 1 .269.406.598.598 0 0 1-.106.462c-.163.225-.415.306-.677.346a1.119 1.119 0 0 1-.718-.198c-.182-.139-.247-.309-.272-.528.173 0 .346-.001.518-.005.01.033.021.064.038.094.075.139.225.17.365.211.092-.021.216-.045.282-.119a.21.21 0 0 0 .037-.18c-.064-.22-.704-.246-.926-.382a.556.556 0 0 1-.263-.351.544.544 0 0 1 .058-.414c.14-.219.334-.309.577-.367zM21.654 15.845c.161-.013.32-.012.477.03.182.049.374.151.466.323.044.082.078.231.048.322-.147.032-.327.01-.478.009-.022-.075-.041-.133-.102-.184a.37.37 0 0 0-.277-.084c-.078.008-.178.046-.222.116-.026.042-.037.085-.02.133.094.278.66.212.881.338.14.08.257.221.297.379a.633.633 0 0 1-.083.503c-.146.217-.378.299-.622.347-.24.03-.518-.021-.719-.16-.206-.142-.268-.32-.314-.553l.514-.004c.031.079.06.14.126.194a.389.389 0 0 0 .308.09.332.332 0 0 0 .229-.127.193.193 0 0 0 .035-.167c-.064-.229-.632-.214-.857-.336a.648.648 0 0 1-.321-.386.525.525 0 0 1 .051-.417c.124-.211.352-.314.581-.367zM15.327 15.316c.171.006.342.002.513.003-.002.193.001.385.008.578h.506l-.001.441h-.482c0 .278-.063.994.064 1.209.1.078.298.049.419.048l-.002.366c.001.038.001.057-.018.09a.476.476 0 0 1-.211.04c-.196.002-.466-.034-.607-.18-.283-.295-.192-1.161-.191-1.572l-.327.001.001-.442.325.002.002-.582zM19.729 15.313l.504.003c-.004.193.004.387.008.58l.515-.001-.001.443h-.484c.006.264-.059 1.003.061 1.203.129.077.29.056.435.056-.002.127.001.255.001.383l-.006.048c-.05.053-.127.05-.195.052-.207.005-.493-.028-.643-.185-.28-.293-.193-1.148-.19-1.557h-.345c-.004-.147-.003-.294-.004-.441l.343.002.001-.586zM8.861 14.983c.027-.001.052-.002.079.002a.294.294 0 0 1 .209.124.586.586 0 0 1 .061.268c.033.44.008.897.008 1.339 0 .36.04.849-.027 1.196-.021.109-.093.161-.18.22-.033.004-.068.009-.101.007-.074-.004-.145-.037-.193-.094s-.046-.169-.05-.239c-.03-.506-.005-1.028-.004-1.535 0-.288-.039-.84.021-1.098.022-.092.105-.14.177-.189zM14.702 15.889l.072-.001c.086.096.043.4.04.526-.181-.002-.353-.009-.495.123-.267.247-.177 1.153-.179 1.516-.143-.001-.421.051-.53-.04l-.006-.09c.003-.674-.014-1.347-.01-2.02.173.005.346.002.519.001l-.006.297c.032-.046.064-.095.101-.137.131-.148.309-.161.493-.174zM16.669 15.898h.543l.001 2.156-.55-.001.005-2.155zM8.102 15.69c.089.016.168.05.22.127.08.12.082 1.291.042 1.458-.022.091-.101.136-.176.18-.086-.005-.199-.013-.256-.087-.085-.111-.078-1.355-.03-1.511.028-.091.121-.129.199-.167zM16.905 15.01a.3.3 0 0 1 .087.595.3.3 0 1 1-.088-.594z"/>
        </symbol>
        <symbol id="icon-down-arrow-alt" viewBox="0 0 32 32">
            <path d="m24.585 17.409-1.81-1.81-5.495 5.495V8.824h-2.56v12.27l-5.495-5.495-1.81 1.81L16 25.994l8.585-8.585z"/>
        </symbol>
        <symbol id="icon-facebook" viewBox="0 0 32 32">
            <path d="M29.008 16.699c0-7.228-5.824-13.088-13.008-13.088S2.992 9.471 2.992 16.699c0 6.532 4.757 11.947 10.976 12.929v-9.146h-3.303v-3.783h3.303v-2.883c0-3.28 1.942-5.092 4.913-5.092 1.423 0 2.912.256 2.912.256v3.221h-1.64c-1.616 0-2.12 1.009-2.12 2.044V16.7h3.608l-.577 3.783h-3.031v9.146c6.219-.982 10.976-6.396 10.976-12.929z"/>
        </symbol>
        <symbol id="icon-instagram" viewBox="0 0 32 32">
            <path d="M21.203 4.912H10.796a6.504 6.504 0 0 0-6.504 6.504v10.406a6.504 6.504 0 0 0 6.504 6.504h10.407a6.504 6.504 0 0 0 6.504-6.504V11.416a6.504 6.504 0 0 0-6.504-6.504zm4.228 16.91a4.24 4.24 0 0 1-4.228 4.228H10.796a4.242 4.242 0 0 1-4.228-4.228V11.416a4.24 4.24 0 0 1 4.228-4.228h10.407a4.24 4.24 0 0 1 4.228 4.228v10.406zm-3.252-10.081a1.301 1.301 0 1 0 0-2.602 1.301 1.301 0 0 0 0 2.602zM16 10.765a5.854 5.854 0 1 0 5.854 5.854A5.841 5.841 0 0 0 16 10.765zm-3.577 5.854a3.577 3.577 0 1 0 7.154 0 3.577 3.577 0 0 0-7.154 0z"/>
        </symbol>
        <symbol id="icon-left-arrow-alt" viewBox="0 0 32 32">
            <path d="m16.905 23.366-5.495-5.495h12.27v-2.56H11.41l5.495-5.495-1.81-1.81-8.585 8.585 8.585 8.585 1.81-1.81z"/>
        </symbol>
        <symbol id="icon-logo-icon" viewBox="0 0 32 32">
            <path d="M17.501 3.14c.384-.041.83.039 1.2.144.838.238 1.518.747 1.922 1.474a2.94 2.94 0 0 1 .224 2.417c-.352.988-1.105 1.484-2.047 1.94l.011 2.881c.673.191 1.328.407 1.939.737a5.666 5.666 0 0 1 2.768 3.493 5.598 5.598 0 0 1-.673 4.507 5.72 5.72 0 0 1-3.539 2.493c-1.959.456-3.621-.038-5.305-.971-.744.742-1.48 1.492-2.206 2.25.325.713.432 1.461.217 2.219-.21.741-.768 1.376-1.48 1.751-.799.421-1.709.498-2.584.264-.869-.232-1.6-.733-2.024-1.487-.418-.741-.453-1.61-.182-2.401.308-.899.936-1.453 1.819-1.864.95-.346 1.736-.232 2.664.079.772-.757 1.5-1.553 2.28-2.304-.858-1.567-1.135-2.902-.689-4.629-.971-.422-1.907-.914-2.879-1.337a3.458 3.458 0 0 1-1.899.965 3.669 3.669 0 0 1-2.556-.573c-.724-.489-1.2-1.233-1.317-2.059-.12-.8.106-1.683.656-2.314.567-.652 1.448-1.045 2.337-1.131a3.468 3.468 0 0 1 2.422.69c.865.675 1.115 1.514 1.22 2.515.921.526 1.975.932 2.935 1.401 1.248-1.375 2.16-1.809 3.98-2.332l.002-2.859a4.29 4.29 0 0 1-.935-.464c-.718-.495-1.189-1.24-1.306-2.065a2.95 2.95 0 0 1 .691-2.297c.601-.702 1.404-1.022 2.336-1.137zm4.011 14.222c-.185-1.967-2.04-3.425-4.152-3.265-2.131.162-3.713 1.908-3.526 3.892s2.072 3.448 4.2 3.262c2.11-.185 3.663-1.922 3.478-3.889zM27.617 12.585c.09-.004.178-.005.267.007.28.038.556.164.71.393.164.243.186.567.209.849.111 1.394.029 2.844.028 4.243 0 1.142.136 2.691-.092 3.791-.072.346-.318.511-.612.698-.112.013-.23.027-.343.021a.952.952 0 0 1-.656-.298c-.162-.178-.157-.535-.171-.759-.103-1.603-.016-3.258-.014-4.866.001-.914-.134-2.663.072-3.479.074-.292.356-.445.603-.6zM25.036 14.825c.303.052.572.158.749.404.273.379.28 4.091.143 4.621-.075.29-.344.431-.599.57-.292-.016-.676-.04-.871-.276-.29-.351-.266-4.296-.101-4.791.096-.287.413-.409.678-.528z"/>
        </symbol>
        <symbol id="icon-modal-close" viewBox="0 0 32 32">
            <path d="m22.835 22.364-.471.471a.668.668 0 0 1-.943 0L16 17.414l-5.421 5.421a.668.668 0 0 1-.943 0l-.471-.471a.668.668 0 0 1 0-.943L14.586 16l-5.421-5.421a.668.668 0 0 1 0-.943l.471-.471c.26-.26.682-.26.943 0L16 14.586l5.421-5.421c.26-.26.683-.26.943 0l.471.471c.26.26.26.682 0 .943L17.414 16l5.421 5.421c.26.26.26.683 0 .943z"/>
        </symbol>
        <symbol id="icon-right-arrow-alt" viewBox="0 0 32 32">
            <path d="m15.095 23.366 1.81 1.81 8.585-8.585-8.585-8.585-1.81 1.81 5.495 5.495H8.32v2.56h12.27l-5.495 5.495z"/>
        </symbol>
        <symbol id="icon-right-arrow" viewBox="0 0 32 32">
            <path d="M7.726 28.654a1.287 1.287 0 0 0 1.322-.081l16.64-11.52a1.283 1.283 0 0 0 .551-1.052 1.279 1.279 0 0 0-.551-1.052L9.048 3.429A1.279 1.279 0 0 0 7.04 4.481v23.04a1.28 1.28 0 0 0 .686 1.134zM9.6 6.924 22.711 16 9.6 25.076V6.923z"/>
        </symbol>
        <symbol id="icon-menu-close" viewBox="0 0 32 32">
            <path d="m21.589 8.459-5.657 5.656-5.656-5.656-1.885 1.885L14.047 16l-5.656 5.656 1.885 1.885 5.656-5.656 5.657 5.656 1.885-1.885L17.818 16l5.656-5.656-1.885-1.885z"/>
        </symbol>
        <symbol id="icon-youtube" viewBox="0 0 32 32">
            <path d="M28.479 10.063a3.258 3.258 0 0 0-2.292-2.297C24.15 7.207 16 7.198 16 7.198s-8.148-.009-10.187.526a3.326 3.326 0 0 0-2.297 2.313c-.537 2.037-.542 6.262-.542 6.262s-.005 4.246.528 6.262a3.26 3.26 0 0 0 2.293 2.296c2.058.559 10.185.568 10.185.568s8.15.009 10.187-.524a3.269 3.269 0 0 0 2.299-2.293c.539-2.036.542-6.259.542-6.259s.026-4.247-.529-6.284zM13.394 20.212l.006-7.805 6.773 3.909-6.78 3.896z"/>
        </symbol>
        <symbol id="icon-Content-logo" viewBox="0 0 110 32">
            <path d="M16.403 0.143c0.434-0.050 0.936 0.047 1.354 0.174 0.945 0.288 1.714 0.904 2.169 1.784 0.474 0.902 0.564 1.958 0.252 2.927-0.397 1.196-1.248 1.798-2.31 2.351l0.012 3.489c0.759 0.232 1.498 0.494 2.187 0.893 1.585 0.918 2.669 2.467 3.123 4.23 0.48 1.848 0.208 3.812-0.759 5.46-0.887 1.493-2.3 2.596-3.993 3.018-2.211 0.553-4.087-0.046-5.987-1.175-0.84 0.898-1.67 1.806-2.489 2.724 0.366 0.864 0.488 1.771 0.245 2.689-0.237 0.897-0.866 1.666-1.67 2.121-0.901 0.51-1.928 0.602-2.916 0.32-0.981-0.281-1.805-0.888-2.284-1.8-0.472-0.897-0.511-1.949-0.206-2.907 0.348-1.089 1.056-1.759 2.052-2.257 1.072-0.419 1.959-0.281 3.006 0.096 0.872-0.917 1.692-1.881 2.573-2.79-0.968-1.898-1.281-3.515-0.778-5.606-1.095-0.511-2.152-1.107-3.248-1.619-0.586 0.61-1.302 1.028-2.143 1.169-1.003 0.169-2.060-0.105-2.884-0.693-0.817-0.592-1.354-1.494-1.486-2.494-0.135-0.969 0.12-2.037 0.741-2.802 0.64-0.789 1.634-1.266 2.637-1.371 0.986-0.096 1.969 0.205 2.733 0.836 0.976 0.818 1.259 1.835 1.377 3.046 1.039 0.637 2.229 1.128 3.311 1.697 1.409-1.665 2.439-2.191 4.492-2.824l0.001-3.463c-0.367-0.147-0.734-0.326-1.054-0.561-0.81-0.599-1.342-1.502-1.474-2.501-0.121-0.994 0.16-1.995 0.78-2.781 0.678-0.851 1.585-1.238 2.636-1.377zM20.93 17.368c-0.209-2.382-2.302-4.148-4.686-3.955-2.404 0.196-4.19 2.311-3.979 4.714s2.337 4.176 4.739 3.951c2.38-0.224 4.134-2.328 3.925-4.71z"></path>
            <path d="M102.108 11.958c0.708 0.001 1.416 0.010 2.124 0.028l-0.004 3.743c0.545-0.424 1.14-0.741 1.83-0.844 0.933-0.141 1.885 0.101 2.637 0.67 0.908 0.687 1.385 1.843 1.523 2.948 0.175 1.402-0.154 2.75-1.019 3.867-0.574 0.554-1.262 0.941-2.056 1.072-1.165 0.191-2.089-0.216-2.998-0.894l-0.004 0.818-2.033-0.004-0.001-11.403zM105.748 16.862c-0.631 0.21-1.070 0.509-1.378 1.117-0.342 0.675-0.365 1.509-0.098 2.212 0.203 0.538 0.585 1.004 1.117 1.244 0.386 0.175 0.749 0.18 1.165 0.155 0.659-0.249 1.102-0.569 1.401-1.229 0.312-0.689 0.307-1.52 0.011-2.214-0.227-0.533-0.632-0.963-1.177-1.174-0.341-0.131-0.682-0.149-1.042-0.111z"></path>
            <path d="M41.271 11.936c1.246 3.84 2.84 7.576 4.056 11.426l-2.296 0.002c-0.269-0.822-0.529-1.752-0.939-2.512-0.268-0.115-0.586-0.076-0.873-0.073-1.108 0.011-2.215 0.008-3.323-0.011-0.348 0.848-0.628 1.721-0.903 2.595l-2.339-0.002c1.221-3.833 2.677-7.617 3.996-11.42 0.872 0.019 1.749-0.002 2.622-0.005zM39.962 14.775c-0.483 1.374-0.934 2.768-1.464 4.125l1.681-0.001 1.307-0.014c-0.184-0.517-1.25-3.881-1.524-4.11z"></path>
            <path d="M89.685 11.961l2.196 0.013c-0.030 2.647-0.007 5.298-0.007 7.945-0.001 1.093 0.11 2.287-0.012 3.365l-0.121 0.083h-2.058l-0.004-4.889c-1.645-0.046-3.303-0.005-4.949-0.003l0.001 4.894-2.209-0.004 0.009-11.401 2.201 0.005 0.001 4.662h4.957l-0.003-4.67z"></path>
            <path d="M93.202 15.121c0.729 0.021 1.46 0.013 2.188 0.017-0.009 1.165-0.193 4.384 0.089 5.347 0.111 0.38 0.333 0.728 0.693 0.913 0.541 0.278 1.090 0.117 1.628-0.072 0.238-0.266 0.443-0.515 0.561-0.859 0.386-1.123 0.18-4.006 0.174-5.343 0.694 0.019 1.391 0.004 2.085 0-0.016 0.8-0.003 1.603-0.004 2.404l0.011 5.834c-0.683 0.010-1.365 0.005-2.047-0.015l-0.063-0.074c0.010-0.173 0.013-0.314-0.018-0.487-0.639 0.277-1.209 0.697-1.936 0.712-0.843 0.017-1.758-0.245-2.363-0.851-0.459-0.459-0.739-1.076-0.883-1.703-0.31-1.348-0.127-4.332-0.113-5.824z"></path>
            <path d="M63.686 14.891c1.089-0.085 2.224-0.008 3.104 0.725 0.617 0.514 0.816 1.13 0.883 1.897l-1.968-0.002c-0.113-0.21-0.227-0.454-0.404-0.619-0.284-0.262-0.694-0.398-1.078-0.377-0.298 0.016-0.679 0.135-0.865 0.387-0.113 0.154-0.175 0.311-0.132 0.503 0.224 1.009 2.79 0.884 3.607 1.419 0.52 0.341 0.919 0.951 1.034 1.56 0.115 0.623-0.033 1.266-0.409 1.775-0.627 0.865-1.593 1.175-2.599 1.329-0.931 0.056-2.011-0.194-2.756-0.761-0.699-0.532-0.95-1.185-1.045-2.025 0.663 0.002 1.326-0.005 1.989-0.018 0.039 0.125 0.082 0.246 0.145 0.361 0.289 0.533 0.865 0.651 1.4 0.808 0.353-0.081 0.831-0.172 1.082-0.457 0.151-0.172 0.204-0.471 0.14-0.691-0.245-0.843-2.703-0.943-3.556-1.468-0.505-0.311-0.876-0.764-1.011-1.349-0.121-0.53-0.075-1.125 0.223-1.59 0.538-0.84 1.28-1.185 2.216-1.408z"></path>
            <path d="M76.929 14.889c0.62-0.050 1.227-0.047 1.831 0.117 0.697 0.189 1.438 0.578 1.79 1.239 0.17 0.317 0.3 0.886 0.186 1.237-0.565 0.122-1.255 0.040-1.835 0.033-0.086-0.287-0.158-0.509-0.391-0.707-0.295-0.247-0.679-0.364-1.062-0.322-0.3 0.031-0.685 0.178-0.852 0.447-0.1 0.16-0.141 0.325-0.078 0.509 0.363 1.068 2.535 0.814 3.38 1.297 0.538 0.308 0.988 0.848 1.141 1.454 0.164 0.65 0.056 1.372-0.319 1.931-0.56 0.835-1.449 1.149-2.388 1.331-0.921 0.114-1.989-0.082-2.759-0.613-0.791-0.545-1.028-1.229-1.206-2.123l1.973-0.015c0.12 0.302 0.229 0.537 0.485 0.746 0.341 0.279 0.745 0.406 1.184 0.347 0.341-0.045 0.676-0.202 0.88-0.487 0.133-0.187 0.2-0.414 0.136-0.642-0.247-0.878-2.426-0.823-3.29-1.288-0.584-0.315-1.046-0.838-1.231-1.481-0.157-0.544-0.091-1.11 0.196-1.599 0.477-0.81 1.353-1.206 2.231-1.409z"></path>
            <path d="M52.641 12.857c0.655 0.023 1.315 0.009 1.97 0.011-0.007 0.74 0.004 1.48 0.032 2.219l1.944 0.001-0.004 1.694-1.851-0.001c0.001 1.066-0.243 3.817 0.246 4.641 0.382 0.301 1.145 0.189 1.609 0.183l-0.007 1.404c0.004 0.145 0.004 0.218-0.070 0.344-0.259 0.124-0.524 0.152-0.81 0.154-0.752 0.007-1.791-0.129-2.331-0.693-1.086-1.131-0.739-4.457-0.734-6.035l-1.254 0.002 0.004-1.698 1.249 0.008 0.007-2.236z"></path>
            <path d="M69.539 12.848l1.934 0.011c-0.015 0.741 0.016 1.485 0.030 2.226l1.975-0.004-0.003 1.702-1.859-0.001c0.023 1.015-0.226 3.85 0.234 4.617 0.494 0.295 1.113 0.216 1.668 0.215-0.007 0.489 0.003 0.979 0.005 1.469l-0.023 0.186c-0.191 0.202-0.486 0.194-0.747 0.2-0.794 0.019-1.891-0.107-2.467-0.71-1.075-1.126-0.74-4.405-0.731-5.978l-1.323 0.001c-0.017-0.564-0.010-1.129-0.015-1.692l1.318 0.007 0.004-2.249z"></path>
            <path d="M27.82 11.582c0.102-0.005 0.2-0.007 0.302 0.008 0.316 0.046 0.628 0.198 0.802 0.476 0.185 0.294 0.21 0.687 0.235 1.028 0.125 1.688 0.032 3.444 0.032 5.138-0 1.384 0.153 3.26-0.104 4.592-0.081 0.419-0.358 0.619-0.691 0.846-0.127 0.015-0.259 0.033-0.387 0.026-0.285-0.016-0.556-0.143-0.74-0.361-0.183-0.216-0.177-0.648-0.193-0.919-0.116-1.942-0.018-3.946-0.016-5.893 0.001-1.107-0.151-3.225 0.082-4.213 0.083-0.353 0.402-0.539 0.68-0.727z"></path>
            <path d="M50.244 15.058l0.278-0.003c0.329 0.368 0.166 1.535 0.155 2.018-0.696-0.007-1.354-0.035-1.899 0.471-1.023 0.949-0.678 4.425-0.688 5.82-0.548-0.005-1.617 0.195-2.035-0.154l-0.022-0.346c0.010-2.586-0.055-5.169-0.038-7.754 0.664 0.021 1.33 0.007 1.994 0.003l-0.023 1.142c0.123-0.177 0.245-0.366 0.388-0.527 0.503-0.568 1.186-0.619 1.891-0.669z"></path>
            <path d="M57.795 15.092l2.086 0.001 0.005 8.275-2.11-0.003 0.019-8.273z"></path>
            <path d="M24.906 14.293c0.343 0.063 0.645 0.192 0.845 0.489 0.308 0.459 0.316 4.955 0.162 5.596-0.084 0.351-0.388 0.522-0.675 0.691-0.33-0.020-0.763-0.049-0.983-0.335-0.327-0.425-0.3-5.203-0.114-5.802 0.108-0.348 0.466-0.495 0.765-0.639z"></path>
            <path d="M58.7 11.683c0.62-0.073 1.185 0.36 1.276 0.978s-0.325 1.195-0.939 1.304c-0.414 0.073-0.835-0.084-1.099-0.411s-0.33-0.771-0.171-1.161c0.159-0.389 0.516-0.661 0.933-0.71z"></path>
        </symbol>
        <symbol id="icon-icon-burger-new" viewBox="0 0 43 32">
            <path d="M0 0h42.667v5.333h-42.667v-5.333zM10.667 13.333h32v5.333h-32v-5.333zM24 26.667h18.667v5.333h-18.667v-5.333z"></path>
        </symbol>
        <symbol id="icon-search" viewBox="0 0 32 32">
            <path d="M13.474 26.947c2.989-0.001 5.893-1.001 8.248-2.843l7.404 7.404 2.381-2.381-7.404-7.404c1.843-2.355 2.844-5.259 2.845-8.249 0-7.429-6.045-13.474-13.474-13.474s-13.474 6.045-13.474 13.474c0 7.429 6.045 13.474 13.474 13.474zM13.474 3.368c5.573 0 10.105 4.532 10.105 10.105s-4.532 10.105-10.105 10.105c-5.573 0-10.105-4.532-10.105-10.105s4.532-10.105 10.105-10.105z"></path>
        </symbol>
        <symbol id="icon-arrow-down-2" viewBox="0 0 52 32">
            <path fill="#fff" style="fill: var(--color1, #fff)" d="M43.172 3.172l-17.172 17.172-17.172-17.172-5.656 5.656 22.828 22.828 22.828-22.828-5.656-5.656z"></path>
        </symbol>
    </defs>
</svg>