<svg width="32" height="29" viewBox="0 0 32 29" fill="none" xmlns="http://www.w3.org/2000/svg">
<path d="M14.4576 0.929307C14.9793 -0.30977 16.756 -0.309769 17.2777 0.92931L20.3566 8.24257C20.5767 8.76493 21.0739 9.12184 21.6447 9.16705L29.6365 9.80002C30.9906 9.90726 31.5396 11.5766 30.508 12.4497L24.4191 17.6024C23.9842 17.9705 23.7942 18.5481 23.9271 19.0983L25.7873 26.8027C26.1025 28.1081 24.6651 29.1399 23.5058 28.4404L16.6637 24.3117C16.175 24.0167 15.5603 24.0167 15.0716 24.3117L8.22943 28.4404C7.07015 29.1399 5.63272 28.1081 5.9479 26.8027L7.80818 19.0983C7.94106 18.5481 7.75112 17.9705 7.31622 17.6024L1.22722 12.4497C0.195572 11.5766 0.744626 9.90726 2.09869 9.80002L10.0906 9.16705C10.6614 9.12184 11.1587 8.76493 11.3786 8.24257L14.4576 0.929307Z" fill="white"/>
</svg>
