<svg width="31" height="29" viewBox="0 0 31 29" fill="none" xmlns="http://www.w3.org/2000/svg">
  <defs>
    <linearGradient id="half-fill" x1="0%" y1="0%" x2="100%" y2="0%">
      <stop offset="50%" stop-color="#764191"></stop>
      <stop offset="50%" stop-color="#ffffff"></stop>
    </linearGradient>
  </defs>
  <path d="M14.0357 0.929307C14.5574 -0.30977 16.3342 -0.309769 16.8558 0.92931L19.9347 8.24257C20.1548 8.76493 20.6521 9.12184 21.2229 9.16705L29.2147 9.80002C30.5687 9.90726 31.1178 11.5766 30.0861 12.4497L23.9972 17.6024C23.5624 17.9705 23.3723 18.5481 23.5052 19.0983L25.3655 26.8027C25.6806 28.1081 24.2433 29.1399 23.084 28.4404L16.2418 24.3117C15.7531 24.0167 15.1384 24.0167 14.6497 24.3117L7.80755 28.4404C6.64827 29.1399 5.21085 28.1081 5.52602 26.8027L7.38631 19.0983C7.51918 18.5481 7.32925 17.9705 6.89435 17.6024L0.805347 12.4497C-0.226303 11.5766 0.322751 9.90726 1.67681 9.80002L9.66871 9.16705C10.2396 9.12184 10.7368 8.76493 10.9567 8.24257L14.0357 0.929307Z" fill="url(#half-fill)"></path>
</svg>
