<svg xmlns="http://www.w3.org/2000/svg" width="80" height="80" fill="none"><path fill="#FFF" fill-rule="evenodd" d="M18.604 7.83c.288-.03.622.03.9.108.628.178 1.138.56 1.441 1.105.315.56.375 1.212.168 1.813-.264.741-.83 1.113-1.535 1.456l.008 2.16c.504.144.995.306 1.454.554a4.246 4.246 0 0 1 2.075 2.62 4.199 4.199 0 0 1-.505 3.38 4.29 4.29 0 0 1-2.654 1.87c-1.469.342-2.715-.03-3.979-.729-.558.557-1.11 1.12-1.654 1.688.244.535.324 1.096.163 1.664-.158.556-.576 1.032-1.11 1.314-.6.315-1.282.373-1.939.198-.652-.174-1.2-.55-1.518-1.115-.314-.556-.34-1.207-.137-1.8.231-.675.703-1.09 1.365-1.399.713-.26 1.302-.174 1.998.06.579-.569 1.125-1.165 1.71-1.728-.644-1.175-.852-2.177-.518-3.472-.728-.317-1.43-.685-2.159-1.003-.389.378-.865.637-1.424.724a2.75 2.75 0 0 1-1.917-.43 2.25 2.25 0 0 1-.988-1.543c-.09-.6.08-1.262.493-1.736.425-.489 1.086-.783 1.753-.849a2.603 2.603 0 0 1 1.816.518c.65.506.837 1.136.915 1.886.69.395 1.482.699 2.201 1.05.937-1.03 1.62-1.356 2.986-1.748v-2.144a3.276 3.276 0 0 1-.7-.347 2.275 2.275 0 0 1-.98-1.55 2.212 2.212 0 0 1 .519-1.722c.45-.527 1.053-.767 1.752-.853Zm3.008 10.667c-.138-1.476-1.53-2.57-3.113-2.45-1.598.122-2.785 1.432-2.645 2.92.14 1.489 1.553 2.586 3.15 2.446 1.582-.139 2.747-1.441 2.608-2.916Z" clip-rule="evenodd"/><path fill="#FFF" d="M69.04 31.46c.22-.01.44-.01.67.02.7.09 1.39.41 1.77.98.41.61.47 1.42.52 2.12.28 3.48.07 7.11.07 10.61 0 2.85.34 6.73-.23 9.48-.18.86-.79 1.27-1.53 1.74-.28.03-.57.07-.85.05-.64-.03-1.24-.29-1.65-.74-.4-.45-.39-1.34-.42-1.9-.26-4.01-.04-8.14-.04-12.16 0-2.29-.33-6.66.18-8.7.19-.73.89-1.11 1.51-1.5ZM62.58 37.06c.76.13 1.43.39 1.88 1.01.68.95.7 10.23.35 11.55-.18.72-.85 1.08-1.49 1.43-.73-.04-1.69-.11-2.18-.7-.72-.87-.66-10.74-.25-11.97.24-.72 1.03-1.02 1.69-1.32Z"/></svg>